<?xml version="1.0" encoding="UTF-8"?>
<svg id="Layer_1" xmlns="http://www.w3.org/2000/svg" version="1.1" viewBox="0 0 566.93 566.93">
  <!-- Generator: Adobe Illustrator 30.0.0, SVG Export Plug-In . SVG Version: 2.1.1 Build 123)  -->
  <defs>
    <style>
      .st0 {
        fill: #d3aa6d;
      }
    </style>
  </defs>
  <g>
    <path class="st0" d="M396.61,376.5c-16.28-1.07-33.48-7.16-46.85-16.6-9.99-7.02-18.87-16.37-25.34-26.62-7.93-12.53-12.51-26.02-14.04-41.23-.53-5.24-.37-15.37.34-20.24,1.28-9.1,2.84-15.21,5.85-22.87,4.48-11.41,10.7-21.06,19.21-29.82,14.45-14.89,31.76-24.13,51.47-27.46,10.98-1.83,18.89-1.81,32.11.14,7.55,1.12,17.97,4.6,25.84,8.62,25.79,13.19,43.79,37.09,49.37,65.56,1.1,5.63,1.49,9.81,1.49,16.92.02,4.19-.09,7.66-.27,9.15-1.39,11.5-3.36,19.19-7.13,28.13-8.55,20.24-24.7,37.23-44.93,47.22-9.76,4.83-19.71,7.52-33.16,9.03-1.87.21-11.18.25-13.95.07M411.59,367.05c10.59-1.19,20.33-4.05,29.27-8.6,9.06-4.6,16.83-10.54,24.26-18.55,10.72-11.53,18.2-27.05,20.65-42.85.85-5.47,1.05-8.16,1.05-13.88,0-8.85-1.14-16.44-3.68-24.63-4.46-14.25-12.51-26.98-23.37-36.89-3.68-3.36-5.21-4.57-9.54-7.55-10.06-6.88-21.36-11.5-32.68-13.31-1.58-.25-3.5-.57-4.25-.69-3.13-.5-9.95-.73-14.36-.48-5.63.32-13.13,1.49-17.31,2.68-13.03,3.75-23.05,8.94-32.7,16.97-2.26,1.87-7.13,6.75-9.44,9.4-11.55,13.4-18.39,29.77-20.05,48.04-.91,10.18.55,22.41,3.91,32.7,5.47,16.67,15.46,30.69,29.48,41.28,12.05,9.1,27.01,14.93,41.85,16.33,1.44.14,3,.3,3.43.34,1.42.16,11.25-.07,13.49-.32Z"/>
    <path class="st0" d="M423.02,361.38c-.18-.07-.85-.55-1.49-1.07-9.76-8.21-24.86-16.12-38.6-20.26-11.59-3.48-21.11-4.83-34.42-4.87-4.94-.02-7.43-.11-7.55-.27-.09-.14-.94-1.3-1.9-2.63-.96-1.3-2.42-3.36-3.27-4.55-1.3-1.9-1.44-2.2-1.07-2.31.89-.34,8.46-.69,14.66-.69,8.03,0,11.27.21,18.07,1.17,10.43,1.49,22.14,4.76,30.76,8.57,2.97,1.33,3.57,1.6,7.25,3.45,5.81,2.9,11.53,6.38,17.15,10.41,3.11,2.24,8.48,6.45,10.7,8.39l1.01.89-1.35.53c-3.87,1.46-9.65,3.36-9.95,3.25Z"/>
    <path class="st0" d="M448.95,346.2c-5.31-4.85-8.64-7.61-13.01-10.73-16.51-11.82-36.63-19.71-61.4-24.08-13.26-2.33-30.41-3.38-43.49-2.68-1.99.11-3.8.16-4.05.09-.27-.07-.55-.5-.8-1.28-.59-1.92-2.19-8-2.19-8.32,0-.25,3.64-.3,18.75-.3h18.75v-1.3c.02-4.67,1.58-10.84,3.82-15.23.57-1.12.96-2.1.85-2.2-.11-.09-2.63-1.62-5.58-3.38-2.95-1.78-10.36-6.24-16.46-9.92-6.11-3.68-12.21-7.34-13.61-8.16-1.37-.8-2.65-1.6-2.84-1.76-.25-.25-.05-.94,1.37-4.32,1.3-3.09,1.78-4,2.03-3.89.34.11,1.44.73,10.06,5.63,2.33,1.33,5.88,3.34,7.89,4.46,2.01,1.14,4.03,2.26,4.46,2.52.43.25,2.56,1.44,4.69,2.63,2.15,1.21,5.12,2.88,6.63,3.75,6.65,3.75,7.52,4.21,7.82,4.12.34-.14,5.26-3.86,6.4-4.87l.75-.64-2.7-4.8c-1.49-2.63-3.96-7.07-5.51-9.83-3.06-5.42-9.35-16.69-12.03-21.49-.91-1.62-2.56-4.55-3.66-6.49-1.07-1.94-1.88-3.59-1.78-3.66,1.28-.89,7.61-5.05,7.98-5.24.39-.21.55-.21.73.02.11.14,2.03,3.41,4.23,7.25,18,31.49,22.55,39.38,22.8,39.63.09.11,1.85-.14,3.91-.57l3.75-.78.11-28.06c.09-24.63.16-28.1.46-28.29.41-.27,8.92-.3,9.31-.05.23.14.3,6.17.34,28.1.05,15.37.14,27.99.23,28.08.09.09,1.87.5,3.96.91l3.82.73.3-.48c.37-.57,10.95-19.21,16.97-29.86,6.24-11.05,7.39-13.03,8.42-14.91.62-1.12,1.17-2.01,1.23-2.01.48,0,9.17,5.9,9.17,6.22,0,.09-2.15,3.77-4.76,8.14-2.63,4.37-7.68,12.83-11.25,18.8-3.57,5.97-7.27,12.21-8.25,13.83-.96,1.65-1.9,3.27-2.06,3.61-.37.8-.53.64,4.12,4.16l3.52,2.67.8-.39c.43-.21,3.38-1.9,6.54-3.75,3.16-1.87,9.03-5.33,13.06-7.68,4.03-2.36,9.28-5.44,11.66-6.86,7.87-4.64,8.8-5.19,9.06-5.1.18.07,2.68,5.58,3.86,8.58.18.46-.46.89-9.1,6.04-14.09,8.39-28.72,17.15-29.02,17.4-.18.14.07.94.96,2.88,1.46,3.25,2.52,6.54,2.88,9.03.16,1.03.34,1.94.41,2.03.09.09,8.23.18,18.09.18,9.88.02,18.36.07,18.89.16l.94.11-.18.96c-.11.5-.5,2.65-.89,4.73l-.73,3.8-17.4.14c-20.56.16-23.37.32-32.29,2.01-10.91,2.04-18.22,3.7-18.43,4.19-.05.11,2.74,1.74,6.2,3.61,12.76,6.93,14.29,7.73,15.09,7.73.41,0,2.68-.25,5.01-.55,9.7-1.28,15.32-1.62,26.25-1.62,5.05,0,9.24.07,9.33.14.25.27-4.8,8.9-5.65,9.65-.37.32-.89.39-2.7.39-2.65,0-19.73.69-19.85.78-.05.05,2.63,2.51,5.95,5.51,3.32,2.97,6.04,5.49,6.08,5.6.07.21-6.77,6.17-7.07,6.17-.07,0-.96-.75-1.94-1.65ZM398.51,304.28c2.22-.46,3.66-1.01,7.13-2.7,4.94-2.42,7.29-2.95,19.32-4.37,3.61-.43,6.65-.87,6.79-1.01.14-.14.07-1.03-.16-2.47-1.39-8.14-6.61-14.82-14.86-19.05-1.92-1.01-5.76-2.33-7.89-2.74-3.73-.71-9.1-.73-12.78-.02-10.25,1.94-19.09,9.22-22.18,18.23-.96,2.83-1.51,8.51-.96,9.97.27.71,1.67,1.3,5.44,2.36,7.5,2.06,15.55,2.79,20.15,1.81Z"/>
  </g>
  <path class="st0" d="M235.69,364.25c-.57-.14-.78-1.17-.39-1.87.48-.85,1.76-.85,2.24,0,.27.5.27.66,0,1.26-.32.66-.94.87-1.85.62Z"/>
  <path class="st0" d="M238.6,364.02c-.43-.43-.34-1.85.16-2.17.59-.37,1.53-.18,1.9.37.91,1.39-.89,2.97-2.06,1.81"/>
  <path class="st0" d="M110.4,360.18c-1.28-.41-2.58-1.76-2.93-3.02-.62-2.24-.09-5.05,1.19-6.43,1.1-1.19,2.15-1.53,4.62-1.51,1.26.02,2.72.14,3.25.3l.94.25.02,3.61c.02,1.97.11,3.66.21,3.75.18.18,1.17.27,2.38.23l.82-.05.09-2.58c.07-2.38.11-2.68.71-3.54,1.1-1.67,3.32-2.38,5.74-1.87,1.51.32,2.65,1.19,3.41,2.61.39.73.48,1.3.48,2.61-.02,2.24-.87,3.96-2.42,4.92-.98.62-1.19.66-3.2.59-2.33-.05-3.11-.05-6.36.05-1.58.05-2.4-.05-3-.3-.75-.32-.87-.32-1.67.09-1.17.59-2.97.71-4.28.3ZM113.47,357.52l.85-.23v-2.58c0-2.83-.02-2.88-1.37-2.88-1.62,0-2.52,1.12-2.52,3.18,0,2.33.94,3.11,3.04,2.51M127.6,356.72c.48-.5.55-.8.55-2.17,0-1.81-.39-2.42-1.74-2.63-1.58-.27-2.45,1.17-2.49,4.05,0,.57.07,1.12.16,1.19.07.09.78.16,1.55.16,1.21,0,1.49-.07,1.97-.59Z"/>
  <path class="st0" d="M225.22,360.11c-2.33-.75-3.55-3.32-3.02-6.43.3-1.81,1.17-3.11,2.56-3.91.94-.53,1.23-.57,3.54-.53,1.39.02,2.88.14,3.32.23l.8.21.14,3.75c.07,2.08.14,3.8.16,3.84.02.02.87.05,1.87.05h1.83v-3.87c0-4.37-.23-3.93,2.13-4.25l1.07-.16v8.28h2.7l.09-2.49c.07-2.36.11-2.56.75-3.48.96-1.35,1.62-1.78,3.2-2.06,1.65-.32,3.57,0,4.73.78,1.1.73,2.01,2.65,2.01,4.28,0,.71-.11,1.65-.25,2.04-.16.41-.18.82-.07.91.11.09.89.11,1.76.07l1.53-.09v-3.84c0-4.3-.14-3.98,1.9-4.23l1.3-.16v8.28h2.97v-7.73l1.14-.25c2.24-.48,2.06-.8,2.06,3.86v4.12h1.46c1.3,0,1.49-.07,1.62-.48.09-.25.09-3.06.02-6.22-.07-3.18-.07-6.04,0-6.38.11-.5.3-.62,1.19-.75.59-.07,1.26-.18,1.46-.25.39-.11.41.37.46,6.93l.07,7.04h2.97l.07-6.77.05-6.77,1.44-.23c.78-.14,1.49-.21,1.58-.16.21.14.23,14.96,0,15.76-.25.87-.98,1.05-4.09,1.01-2.42-.02-3.27-.02-6.59-.02h-9.26c-.69-.02-2.04.02-2.97.09-.94.09-2.33.05-3.09-.07-.91-.16-1.9-.16-3,0-1.12.16-2.08.16-3.18,0-1.17-.18-2.01-.18-3.25.02-1.26.21-1.97.21-2.93,0-.98-.21-1.74-.21-3.27.02-1.94.27-2.7.21-5.12-.39-.41-.09-.94,0-1.46.25-1.21.57-2.97.64-4.44.16ZM228.95,357.41c.46-.14.43-.02.39-2.95-.05-2.47-.11-2.63-1.33-2.63-1.71,0-2.65,1.07-2.65,3.09,0,2.45,1.1,3.22,3.59,2.49M249.37,356.7c.8-1.05.8-2.84,0-4.07-.78-1.19-2.97-.87-3.54.53-.16.37-.25,1.39-.21,2.35l.07,1.69,1.03.11c1.26.16,2.24-.07,2.65-.62Z"/>
  <path class="st0" d="M134.51,360.11l-.53-.07v-16.42l1.1-.14c.59-.09,1.26-.21,1.49-.27.37-.09.39.37.34,8.44l-.07,8.53-.91.02c-.5,0-1.14-.05-1.42-.09"/>
  <path class="st0" d="M139.24,360.11c-.14-.05-.23-.64-.23-1.3v-1.21l1.67-.14c.89-.09,2.1-.16,2.67-.21l1.03-.05.07-1.49c.11-2.17-.21-3.04-1.33-3.55-.64-.3-1.19-.37-1.92-.27-.57.09-1.1.05-1.17-.07-.07-.11-.21-.73-.27-1.35l-.14-1.12,1.39-.16c1.92-.21,3.75.21,4.76,1.07,1.35,1.19,1.69,2.15,1.69,4.62,0,1.19.09,2.22.21,2.29.3.18,11.39.21,11.69.02.16-.09.23-1.4.21-3.82-.02-4.14-.11-3.93,1.81-4.19l1.19-.16v8.28l6.01-.05,5.99-.07.07-3.8.05-3.8.87-.16c.46-.07,1.12-.14,1.49-.14h.62v8h2.74v-7.71l.87-.16c.46-.07,1.17-.14,1.53-.14h.69l-.07,2.33c-.05,1.3-.02,3.11.07,4.02l.16,1.65h2.47v-3.75c0-2.08.09-3.82.21-3.89.11-.09.85-.21,1.6-.27l1.39-.16v8.07h3.2v-1.99c0-2.54.27-3.52,1.28-4.64.98-1.1,2.01-1.44,4.12-1.44,1.88.02,2.63.34,3.8,1.62,1.14,1.26,1.49,2.79,1.1,4.89-.14.87-.23,1.62-.21,1.67.05.05.78.02,1.62-.05l1.55-.14.05-6.75.07-6.77.57-.14c.32-.09,1.01-.23,1.53-.3l.96-.16.02,7.78c0,4.28-.05,8.03-.14,8.32-.11.48-.3.57-2.1.78-1.35.18-2.72.18-4.25.05-1.53-.16-2.77-.14-3.77.02-1.07.16-1.92.16-3.04-.02-1.12-.21-1.97-.21-3.16-.02-1.12.18-2.08.18-3.13.02-.94-.14-2.22-.16-3.25-.05-.96.11-2.2.11-2.84,0-.71-.14-1.69-.11-2.72.05-1.17.16-1.99.16-2.97,0-.98-.18-1.83-.18-2.9-.02-1.3.21-3.66.21-13.74,0-.57-.02-3.75,0-7.09.02-3.34.05-6.36,0-6.75-.07-.37-.07-2.26-.07-4.19.02-1.9.09-3.59.14-3.7.09M199.27,356.59c.57-.66.62-.87.53-2.19-.09-1.28-.18-1.56-.75-2.04-.82-.73-2.04-.59-2.79.27-.46.53-.53.85-.53,2.65v2.03h1.46c1.37,0,1.51-.05,2.08-.73"/>
  <path class="st0" d="M211.59,359.76c-.07-.18-.09-3.86-.05-8.19l.07-7.87,1.37-.27c.73-.14,1.42-.23,1.51-.16.21.11.27,14.57.07,15.82l-.16.96h-1.35c-.91,0-1.37-.09-1.46-.3Z"/>
  <path class="st0" d="M71.19,354.96c-.05-.16-.07-2.08-.05-4.28l.07-4,6.93-.07,6.91-.05v-49.83l.75-.14c.39-.07,7.68-.09,16.17-.07l15.43.07.07,14.25.05,14.22h119.82v-18.98l-45.44.05-45.46.07-1.51.53c-3.04,1.01-5.95,3.54-7.27,6.29-.71,1.46-1.39,3.73-1.39,4.66v.53h-9.19l.16-1.19c.73-5.72,2.65-10.2,5.95-13.86,2.33-2.61,6.59-5.03,10.66-6.11l2.17-.57,50.54.05,50.51.07-.07,13.86c-.02,7.61,0,14.02.09,14.25.11.32.78.37,5.95.37,3.43,0,5.81-.09,5.81-.21s-.37-1.49-.82-3.04c-.78-2.61-.85-3.04-.87-6.01-.02-3.02.02-3.34.71-5.49,1.01-3.13,2.56-5.76,4.57-7.8,3.38-3.43,7.09-5.24,11.91-5.85,7.73-.98,16.01,3.54,19.48,10.7,1.42,2.88,1.9,4.96,1.9,8.32.02,3.98-.78,7.02-2.67,10.18-2.65,4.48-7.57,8.07-12.03,8.78-1.03.18-28.49.25-87.63.25h-86.16v-29.04h-12.58l-.05,24.65-.07,24.63-11.62.07c-9.33.05-11.64,0-11.73-.25ZM278.62,325.42c1.99-.53,3.25-1.21,4.6-2.54,2.06-2.01,3.27-5.19,2.95-7.8-.37-2.9-1.58-5.15-3.73-6.84-1.99-1.53-3.38-2.01-5.99-1.99-2.63,0-4.25.55-6.01,1.99-2.72,2.22-3.7,4.3-3.7,7.82,0,2.17.05,2.38.85,4,2.13,4.3,6.63,6.49,11.05,5.35"/>
  <path class="st0" d="M110.66,347.55c-.55-.18-.91-.78-.91-1.46,0-.73.48-1.17,1.26-1.17.32,0,.73.11.91.27.48.41.43,1.51-.11,2.06-.48.48-.57.5-1.14.3"/>
  <path class="st0" d="M113.58,347.55c-.57-.14-.94-1.23-.66-1.97.21-.5.39-.62,1.01-.62,1.42,0,2.01,1.3,1.01,2.24-.53.5-.64.53-1.35.34Z"/>
  <path class="st0" d="M158.68,347.26c-.55-.55-.59-1.65-.11-2.06.87-.73,2.17-.09,2.17,1.07,0,.59-.73,1.44-1.26,1.44-.18,0-.55-.21-.8-.46"/>
  <path class="st0" d="M161.92,347.46c-.27-.11-.55-.46-.64-.78-.37-1.46,1.07-2.38,2.13-1.35.62.62.66.96.18,1.62-.39.57-.98.75-1.67.5Z"/>
  <path class="st0" d="M225.49,347.48c-1.07-.43-1.1-1.94-.05-2.52,1.28-.69,2.42,1.23,1.39,2.26-.53.53-.59.55-1.35.25"/>
  <path class="st0" d="M228.63,347.55c-.55-.14-.89-1.07-.69-1.83.14-.55.3-.64,1.05-.71.66-.07.98.02,1.19.32.46.62.37,1.33-.23,1.87-.53.5-.64.53-1.33.34"/>
  <path class="st0" d="M257.14,347.51c-.66-.25-1.05-1.17-.78-1.83.25-.71.57-.94,1.37-.94,1.28,0,1.81,1.6.82,2.52-.53.48-.73.53-1.42.25"/>
  <path class="st0" d="M261.81,347.42c-.3-.16-.66-.57-.78-.91-.18-.53-.14-.71.25-1.1.55-.55,1.49-.64,2.01-.21.5.41.41,1.51-.16,2.06-.57.53-.59.53-1.33.16Z"/>
  <path class="st0" d="M264.8,347.35c-.48-.34-.66-1.51-.3-2.06.41-.64,1.99-.37,2.22.39.41,1.28-.89,2.38-1.92,1.67"/>
  <path class="st0" d="M279.35,290.96c-.82-1.1-1.37-2.26-1.14-2.45.09-.09,2.4-1.44,5.1-3,2.7-1.55,5.76-3.32,6.79-3.93,2.33-1.39,3.82-2.06,4.23-1.9.18.07.66.71,1.07,1.42.59,1.05.66,1.35.43,1.58-.16.16-1.62,1.05-3.27,1.99-3.34,1.92-8.12,4.69-10.52,6.08-.87.53-1.71.94-1.87.94s-.53-.34-.82-.73"/>
  <path class="st0" d="M131.56,286.79c-.14-.37.66-2.06,1.1-2.36.16-.09,16.19-.23,35.63-.3l35.33-.11,1.14-.64c.64-.34,3.02-1.94,5.33-3.57,2.29-1.6,4.41-3.06,4.71-3.22.73-.39,1.51-.16,2.4.66,1.17,1.1,1.01,1.49-1.74,4.16l-2.42,2.38,14.43.07,14.45.05v.71c0,.53-.23.96-.89,1.6l-.89.89h-54.22c-46.33,0-54.24-.05-54.36-.32Z"/>
  <path class="st0" d="M78.48,281.67l-7.61-.05v-7.77h14.63v-71.35h9.15v36.36h22.18v13.95h6.4c3.52,0,6.4-.02,6.4-.07s-.32-1.39-.69-3.04c-1.28-5.47-1.14-9.15.5-13.42,1.39-3.64,4.71-7.68,7.87-9.6,3.34-2.01,6.47-2.81,10.47-2.63,4.46.21,8.28,1.94,11.66,5.3,4.78,4.71,7,11.89,5.65,18.39-.27,1.28-.69,2.86-.94,3.5-.25.62-.46,1.23-.46,1.35,0,.14,2.79.23,7.32.23h7.32v-24.47h10.06v24.47h14.18v-24.47h9.15v11.52c0,6.33.07,11.85.14,12.23l.16.71h7.48v-24.47h10.29l-.02,10.59v12.23l.02,1.65h7.78v-24.47h9.6v24.47h6.08c5.65,0,6.08-.02,5.95-.39-.27-.69-1.46-4.48-1.76-5.56-.16-.57-.3-2.22-.3-3.66-.02-4.28.89-7.41,3.2-10.88,3.54-5.37,9.67-8.6,16.33-8.58,5.85,0,11.59,2.9,15.16,7.68,4.09,5.47,5.08,12.35,2.65,18.66-1.74,4.55-5.12,8.25-9.58,10.5-1.85.94-3.98,1.53-6.56,1.83-1.33.14-31.01.23-86.55.23h-84.56v-14.86l-6.22.05-6.24.07-.07,16.88-.05,16.85-1.21.02c-4.6.07-8.32.09-14.95.02M279.32,252.45c1.53-.41,3.84-1.97,4.71-3.16.39-.53,1.03-1.6,1.42-2.42.64-1.37.71-1.67.69-3.8,0-2.15-.05-2.4-.8-4-1.01-2.1-2.72-3.84-4.76-4.83-1.19-.57-1.85-.73-3.43-.8-3.86-.23-6.75,1.19-8.9,4.34-1.17,1.69-1.53,3.02-1.53,5.42.02,1.94.09,2.33.75,3.75,2.26,4.87,6.68,6.91,11.85,5.49M149.19,251.99c2.77-.71,5.03-2.61,6.33-5.33.98-2.06,1.17-4.96.43-7.16-1.3-3.91-4.53-6.45-8.6-6.75-2.65-.21-5.21.73-7.23,2.61-2.35,2.19-3.32,4.62-3.11,7.77.18,3.02,1.81,5.97,4.14,7.52,2.4,1.58,5.24,2.06,8.03,1.33"/>
  <path class="st0" d="M110.04,278.52c-2.49-1.23-3.52-4.41-2.29-6.88,1.07-2.1,2.58-2.93,5.08-2.77,2.61.16,4.46,1.97,4.64,4.55.3,4.21-3.73,6.95-7.43,5.1Z"/>
  <path class="st0" d="M207.13,221.05c-1.01-1.03-.89-1.65.66-3.2.71-.71,1.87-1.78,2.56-2.38l1.26-1.07h-3c-1.65,0-3.64-.07-4.41-.14l-1.39-.16v-3.82h30.41v3.86l-6.33.07-6.36.07-1.58.73c-2.4,1.14-5.08,2.86-7.23,4.6-3,2.4-3.48,2.56-4.6,1.44Z"/>
  <path class="st0" d="M288.31,220.89c-.41-.46-.55-.85-.57-1.83-.02-1.17-.09-1.3-.91-2.01-.5-.43-1.21-1.33-1.58-1.99-1.76-3.25.07-7.52,3.68-8.58,4.07-1.19,7.87,1.72,7.87,6.01,0,2.08-.57,2.93-4.19,6.13-1.78,1.58-3.36,2.86-3.5,2.86s-.48-.27-.8-.59h0ZM291.65,214.31c1.46-.62,1.76-2.47.55-3.59-2.08-1.94-5.1,1.07-3.16,3.13.43.46.71.59,1.65.75.09,0,.53-.11.96-.3"/>
  <path class="st0" d="M103.27,220.07c-.8-1.07-1.12-1.78-1.01-2.1.14-.32,14.41-9.38,15.18-9.6.34-.11.62-.02.91.3.5.55,1.58,2.49,1.44,2.61-.71.59-15.34,9.54-15.62,9.54-.21,0-.62-.34-.91-.73"/>
  <path class="st0" d="M242.1,217.96c-1.26-.46-1.94-.96-2.7-2.01-1.33-1.83-1.46-4.14-.37-6.31.94-1.83,2.72-2.84,5.08-2.84,3.22-.02,5.81,2.52,5.81,5.72,0,1.42-1.05,3.68-2.1,4.46-1.67,1.28-3.84,1.65-5.72.98M245.25,214.42c1.94-1.19,1.14-4.14-1.07-4.14-1.3,0-2.26.91-2.26,2.15,0,2.01,1.67,3,3.34,1.99"/>
  <path class="st0" d="M138.3,216.96c-2.88-1.51-3.66-5.53-1.51-7.96,2.36-2.7,6.59-2.24,8.39.89,2.56,4.48-2.29,9.47-6.88,7.07Z"/>
  <path class="st0" d="M150.79,217.32c-2.01-.71-3.43-2.7-3.43-4.87,0-3,2.15-5.17,5.12-5.17,2.19-.02,3.84,1.07,4.85,3.22,1.12,2.36-.27,5.67-2.81,6.75-.96.39-2.7.43-3.73.07"/>
  <path class="st0" d="M175.48,217.16c-1.9-.87-3.06-2.68-3.09-4.78-.02-4.3,4.64-6.61,8.3-4.09.34.23.94.96,1.3,1.6,2.42,4.23-2.1,9.31-6.52,7.27"/>
  <path class="st0" d="M187.4,217.28c-1.97-.73-3.18-2.61-3.2-4.96-.02-3,2.01-5.03,5.03-5.03,4.05,0,6.47,4.12,4.48,7.61-.96,1.71-2.13,2.49-3.96,2.61-.94.07-1.78-.02-2.35-.23Z"/>
  <path class="st0" d="M255.57,214.01c-.09-.07-.16-.96-.16-1.94v-1.78h21.06l-.07,1.9-.07,1.87-10.31.07c-5.67.02-10.38-.02-10.45-.11"/>
</svg>